# Blender v2.79 (sub 0) OBJ File: 'balloon.blend'
# www.blender.org
mtllib hot_air_balloons_balloon.mtl
o Cube.001
v -19.500000 44.216793 19.500000
v -19.500000 83.216797 19.500000
v -19.500000 44.216793 -19.500000
v -19.500000 83.216797 -19.500000
v 19.500000 44.216793 19.500000
v 19.500000 83.216797 19.500000
v 19.500000 44.216793 -19.500000
v 19.500000 83.216797 -19.500000
v -6.500000 0.016788 6.500000
v 6.500000 0.016788 6.500000
v -6.500000 0.016788 -6.500000
v 6.500000 0.016788 -6.500000
v -6.500000 1.441189 6.500000
v 6.500000 1.441189 6.500000
v -6.500000 1.441189 -6.500000
v 6.500000 1.441189 -6.500000
v -6.500000 0.016788 -4.550000
v -6.500000 0.016788 4.550000
v 6.500000 0.016788 4.550000
v 6.500000 0.016788 -4.550000
v -6.500000 1.441189 -4.550000
v -6.500000 1.441189 4.550000
v 6.500000 1.441189 4.550000
v 6.500000 1.441189 -4.550000
v -4.550000 0.016788 6.500000
v 4.550000 0.016788 6.500000
v 4.550000 0.016788 -6.500000
v -4.550000 0.016788 -6.500000
v -4.550000 1.441189 6.500000
v 4.550000 1.441189 6.500000
v 4.550000 1.441189 -6.500000
v -4.550000 1.441189 -6.500000
v 4.550000 1.441189 4.550000
v -4.550000 1.441189 4.550000
v -4.550000 1.441189 -4.550000
v -4.550000 0.016788 4.550000
v 4.550000 0.016788 4.550000
v -4.550000 0.016788 -4.550000
v 4.550000 0.016788 -4.550000
v 6.500000 11.077995 6.500000
v -6.500000 11.077995 6.500000
v 6.500000 11.077995 6.500000
v -6.500000 11.077995 -6.500000
v -6.500000 11.077995 6.500000
v 6.500000 11.077995 -6.500000
v 4.550000 11.077995 4.550000
v 4.550000 11.077995 -4.550000
v -4.550000 11.077995 -4.550000
v -4.550000 11.077995 -4.550000
v -4.550000 1.441189 -4.550000
v 4.550000 1.441189 -4.550000
v 4.550000 11.077995 -4.550000
v -4.550000 11.077995 4.550000
v 4.550000 1.441189 4.550000
v 6.500000 1.441189 -6.500000
v 4.550000 11.077995 4.550000
v -4.550000 11.077995 -6.500000
v -6.500000 1.441189 -6.500000
v 4.550000 11.077995 -6.500000
v 4.550000 11.077995 6.500000
v -4.550000 11.077995 6.500000
v 6.500000 11.077995 -4.550000
v 6.500000 1.441189 6.500000
v 6.500000 11.077995 4.550000
v -6.500000 11.077995 4.550000
v -6.500000 11.077995 -4.550000
v -6.500000 1.441189 6.500000
v 6.500000 11.077995 -6.500000
v -6.500000 11.077995 -6.500000
v 5.586319 8.609333 -5.559702
v 11.988016 44.915165 -12.060156
v 5.537368 8.331722 -7.158404
v 11.939065 44.637550 -13.658857
v 7.185020 8.327442 -5.559702
v 13.586718 44.633270 -12.060156
v 7.136070 8.049831 -7.158404
v 13.537767 44.355656 -13.658857
v -5.586318 8.609333 -5.559702
v -11.988014 44.915165 -12.060155
v -5.537367 8.331722 -7.158404
v -11.939065 44.637554 -13.658857
v -7.185020 8.327442 -5.559702
v -13.586717 44.633270 -12.060155
v -7.136071 8.049831 -7.158404
v -13.537764 44.355656 -13.658857
v 5.586319 8.609337 5.559702
v 11.988015 44.915161 12.060157
v 5.537368 8.331722 7.158404
v 11.939065 44.637547 13.658860
v 7.185020 8.327442 5.559702
v 13.586717 44.633270 12.060157
v 7.136070 8.049831 7.158404
v 13.537766 44.355652 13.658860
v -5.586318 8.609337 5.559702
v -11.988016 44.915161 12.060155
v -5.537367 8.331722 7.158405
v -11.939065 44.637550 13.658857
v -7.185019 8.327442 5.559704
v -13.586717 44.633266 12.060157
v -7.136071 8.049831 7.158405
v -13.537766 44.355652 13.658860
vt 0.666667 0.666667
vt 0.333333 0.666667
vt 0.333333 0.333333
vt 0.666667 0.333333
vt 0.000000 1.000000
vt 0.000000 0.666667
vt 0.333333 0.666667
vt 0.333333 1.000000
vt 0.333333 0.333333
vt 0.000000 0.333333
vt 0.000000 0.000000
vt 0.333333 0.000000
vt 0.333333 0.333333
vt 0.333333 0.000000
vt 0.666667 0.000000
vt 0.666667 0.333333
vt 0.000000 0.666667
vt 0.000000 0.333333
vt 0.333333 0.666667
vt 0.666667 0.000000
vt 1.000000 0.000000
vt 1.000000 0.333333
vt 0.666667 0.333333
vt 0.350615 0.683822
vt 0.333949 0.683822
vt 0.333949 0.667155
vt 0.350615 0.667155
vt 0.761207 0.650000
vt 0.761207 0.666667
vt 0.749033 0.666667
vt 0.749033 0.650000
vt 0.761207 0.427778
vt 0.761207 0.444444
vt 0.749033 0.444444
vt 0.749033 0.427778
vt 0.538985 0.761111
vt 0.538985 0.777778
vt 0.526810 0.777778
vt 0.526810 0.761111
vt 0.667442 0.461111
vt 0.667442 0.444444
vt 0.679616 0.444444
vt 0.679616 0.461111
vt 0.667442 0.555556
vt 0.667442 0.538889
vt 0.679616 0.538889
vt 0.679616 0.555556
vt 0.761207 0.555556
vt 0.761207 0.572222
vt 0.749033 0.572222
vt 0.749033 0.555556
vt 0.749420 0.427778
vt 0.749420 0.444444
vt 0.667054 0.444444
vt 0.667054 0.427778
vt 0.000000 0.000000
vt 0.000000 0.000000
vt 0.000000 0.000000
vt 0.000000 0.000000
vt 0.445060 0.683822
vt 0.428393 0.683822
vt 0.428393 0.667155
vt 0.445060 0.667155
vt 0.428393 0.777778
vt 0.350615 0.777778
vt 0.350615 0.761111
vt 0.428393 0.761111
vt 0.350615 0.683333
vt 0.428393 0.683333
vt 0.445060 0.777778
vt 0.445060 0.761111
vt 0.445060 0.683333
vt 0.749420 0.555556
vt 0.749420 0.572222
vt 0.667054 0.572222
vt 0.667054 0.555556
vt 0.616763 0.749521
vt 0.538985 0.749521
vt 0.538985 0.667155
vt 0.616763 0.667155
vt 0.749420 0.334108
vt 0.749420 0.350775
vt 0.667054 0.350775
vt 0.667054 0.334108
vt 0.000000 0.000000
vt 0.000000 0.000000
vt 0.000000 0.000000
vt 0.000000 0.000000
vt 0.538985 0.666667
vt 0.538985 0.683333
vt 0.526810 0.683333
vt 0.526810 0.666667
vt 0.761207 0.334108
vt 0.761207 0.350775
vt 0.749033 0.350775
vt 0.749033 0.334108
vt 0.761207 0.350000
vt 0.749033 0.350000
vt 0.000000 0.000000
vt 0.000000 0.000000
vt 0.333949 0.777778
vt 0.333949 0.761111
vt 0.333949 0.683333
vt 0.744444 0.749033
vt 0.666667 0.749033
vt 0.666667 0.666667
vt 0.744444 0.666667
vt 0.000000 0.000000
vt 0.000000 0.000000
vt 0.000000 0.000000
vt 0.000000 0.000000
vt 0.000000 0.000000
vt 0.000000 0.000000
vt 0.000000 0.000000
vt 0.000000 0.000000
vt 0.744444 0.666667
vt 0.822222 0.666667
vt 0.822222 0.749033
vt 0.744444 0.749033
vt 0.444445 0.777778
vt 0.444445 0.761111
vt 0.000000 0.000000
vt 0.000000 0.000000
vt 0.000000 0.000000
vt 0.000000 0.000000
vt 0.616763 0.777778
vt 0.616763 0.666667
vt 0.633429 0.666667
vt 0.633429 0.777778
vt 0.616763 0.831398
vt 0.538985 0.831398
vt 0.538985 0.749033
vt 0.616763 0.749033
vt 0.444445 0.683333
vt 0.749420 0.650000
vt 0.667054 0.650000
vt 0.678841 0.538889
vt 0.678841 0.461111
vt 0.761207 0.461111
vt 0.761207 0.538889
vt 0.749420 0.666667
vt 0.667054 0.666667
vt 0.678841 0.555556
vt 0.761207 0.555556
vt 0.000000 0.000000
vt 0.000000 0.000000
vt 0.678841 0.444444
vt 0.761207 0.444444
vt 0.749420 0.350000
vt 0.667054 0.350000
vt 0.000000 0.000000
vt 0.000000 0.000000
vt 0.444445 0.666667
vt 0.633429 0.666667
vt 0.650096 0.666667
vt 0.650096 0.777778
vt 0.633429 0.777778
vt 0.744444 0.749033
vt 0.761111 0.749033
vt 0.761111 0.826810
vt 0.744444 0.826810
vt 0.777778 0.749033
vt 0.777778 0.826810
vt 0.761111 0.826810
vt 0.761111 0.749033
vt 0.666667 0.749033
vt 0.744444 0.749033
vt 0.744444 0.826810
vt 0.666667 0.826810
vt 0.858286 0.648647
vt 0.858286 0.333406
vt 0.872154 0.333333
vt 0.872154 0.648574
vt 0.941529 0.333333
vt 0.941529 0.648427
vt 0.927654 0.648427
vt 0.927654 0.333333
vt 0.844417 0.333406
vt 0.844417 0.648647
vt 0.830549 0.648574
vt 0.830549 0.333333
vt 0.955404 0.333333
vt 0.955404 0.648427
vt 0.941529 0.648427
vt 0.941529 0.333333
vt 0.650096 0.694844
vt 0.663754 0.695262
vt 0.663754 0.708933
vt 0.650096 0.708515
vt 0.663754 0.722603
vt 0.650096 0.723022
vt 0.650096 0.709351
vt 0.663754 0.708933
vt 0.844417 0.333333
vt 0.858286 0.333406
vt 0.858286 0.648647
vt 0.844417 0.648574
vt 0.913779 0.333333
vt 0.927654 0.333333
vt 0.927654 0.648427
vt 0.913779 0.648427
vt 0.830549 0.648574
vt 0.816681 0.648647
vt 0.816681 0.333406
vt 0.830549 0.333333
vt 0.886029 0.648427
vt 0.872154 0.648427
vt 0.872154 0.333333
vt 0.886029 0.333333
vt 0.650096 0.694844
vt 0.650096 0.681174
vt 0.663754 0.680755
vt 0.663754 0.694426
vt 0.650096 0.750781
vt 0.650096 0.737110
vt 0.663754 0.737528
vt 0.663754 0.751199
vt 0.802812 0.648647
vt 0.788944 0.648574
vt 0.788944 0.333333
vt 0.802812 0.333406
vt 0.886029 0.648427
vt 0.899904 0.648427
vt 0.899904 0.963520
vt 0.886029 0.963520
vt 0.762184 0.333406
vt 0.776052 0.333333
vt 0.776052 0.648574
vt 0.762183 0.648647
vt 0.913779 0.648426
vt 0.899904 0.648427
vt 0.899904 0.333333
vt 0.913779 0.333333
vt 0.650096 0.765288
vt 0.650096 0.751617
vt 0.663754 0.751199
vt 0.663754 0.764869
vt 0.650096 0.680337
vt 0.650096 0.666667
vt 0.663754 0.667085
vt 0.663754 0.680755
vt 0.816681 0.333333
vt 0.816681 0.648574
vt 0.802812 0.648647
vt 0.802812 0.333406
vt 0.886029 0.648427
vt 0.886029 0.333333
vt 0.899904 0.333333
vt 0.899904 0.648426
vt 0.788944 0.333406
vt 0.788944 0.648647
vt 0.775075 0.648574
vt 0.775075 0.333333
vt 0.872154 0.963520
vt 0.872154 0.648427
vt 0.886029 0.648427
vt 0.886029 0.963520
vt 0.650096 0.723022
vt 0.663754 0.723440
vt 0.663754 0.737110
vt 0.650096 0.736692
vt 0.774865 0.662317
vt 0.761207 0.662735
vt 0.761207 0.649065
vt 0.774865 0.648647
vn -1.0000 0.0000 0.0000
vn 0.0000 0.0000 -1.0000
vn 1.0000 0.0000 0.0000
vn 0.0000 0.0000 1.0000
vn 0.0000 -1.0000 0.0000
vn 0.0000 1.0000 0.0000
vn -0.9848 0.1736 0.0000
vn -0.0302 -0.1710 -0.9848
vn 0.9848 -0.1736 0.0000
vn 0.0302 0.1710 0.9848
vn -0.1710 -0.9698 0.1736
vn 0.1710 0.9698 -0.1736
vn 0.9848 0.1736 -0.0000
vn 0.0302 -0.1710 -0.9848
vn -0.9848 -0.1736 -0.0000
vn -0.0302 0.1710 0.9848
vn 0.1710 -0.9698 0.1736
vn -0.1710 0.9698 -0.1737
vn -0.0302 -0.1710 0.9848
vn 0.0302 0.1710 -0.9848
vn -0.1710 -0.9698 -0.1736
vn 0.1710 0.9698 0.1737
vn 0.0302 -0.1710 0.9848
vn -0.0302 0.1710 -0.9848
vn 0.1710 -0.9698 -0.1736
vn -0.1710 0.9698 0.1736
usemtl None
s off
f 1/1/1 2/2/1 4/3/1 3/4/1
f 3/5/2 4/6/2 8/7/2 7/8/2
f 7/9/3 8/10/3 6/11/3 5/12/3
f 5/13/4 6/14/4 2/15/4 1/16/4
f 3/17/5 7/18/5 5/13/5 1/19/5
f 8/20/6 4/21/6 2/22/6 6/23/6
f 39/24/5 27/25/5 12/26/5 20/27/5
f 18/28/1 9/29/1 13/30/1 22/31/1
f 28/32/2 11/33/2 15/34/2 32/35/2
f 26/36/4 10/37/4 14/38/4 30/39/4
f 20/40/3 12/41/3 16/42/3 24/43/3
f 10/44/3 19/45/3 23/46/3 14/47/3
f 19/45/3 20/40/3 24/43/3 23/46/3
f 11/48/1 17/49/1 21/50/1 15/51/1
f 17/49/1 18/28/1 22/31/1 21/50/1
f 32/52/2 15/53/2 69/54/2 57/55/2
f 15/56/4 58/57/4 43/58/4 69/59/4
f 26/60/5 37/61/5 19/62/5 10/63/5
f 37/61/5 39/24/5 20/27/5 19/62/5
f 18/64/5 17/65/5 38/66/5 36/67/5
f 36/67/5 38/66/5 39/68/5 37/69/5
f 9/70/5 18/64/5 36/67/5 25/71/5
f 25/71/5 36/67/5 37/69/5 26/72/5
f 15/73/1 21/74/1 66/75/1 69/76/1
f 51/77/2 50/78/2 48/79/2 47/80/2
f 16/81/2 31/82/2 59/83/2 68/84/2
f 52/85/4 56/86/4 46/87/4 47/88/4
f 9/89/4 25/90/4 29/91/4 13/92/4
f 25/90/4 26/36/4 30/39/4 29/91/4
f 12/93/2 27/94/2 31/95/2 16/96/2
f 27/97/2 28/32/2 32/35/2 31/98/2
f 49/99/4 52/85/4 47/88/4 48/100/4
f 17/65/5 11/101/5 28/102/5 38/66/5
f 38/66/5 28/102/5 27/103/5 39/68/5
f 34/104/4 33/105/4 56/106/4 53/107/4
f 13/108/4 67/109/4 41/110/4 44/111/4
f 16/112/4 55/113/4 45/114/4 68/115/4
f 54/116/3 51/117/3 47/118/3 46/119/3
f 30/39/4 14/38/4 40/120/4 60/121/4
f 14/122/4 63/123/4 42/124/4 40/125/4
f 44/126/6 42/127/6 64/128/6 65/129/6
f 35/130/1 34/131/1 53/132/1 49/133/1
f 29/91/4 30/39/4 60/121/4 61/134/4
f 21/74/1 22/135/1 65/136/1 66/75/1
f 23/137/3 24/138/3 62/139/3 64/140/3
f 22/135/1 13/141/1 44/142/1 65/136/1
f 14/143/3 23/137/3 64/140/3 40/144/3
f 50/145/4 35/146/4 49/99/4 48/100/4
f 24/138/3 16/147/3 68/148/3 62/139/3
f 31/149/2 32/52/2 57/55/2 59/150/2
f 33/151/4 54/152/4 46/87/4 56/86/4
f 13/92/4 29/91/4 61/134/4 44/153/4
f 62/154/6 68/155/6 69/156/6 66/157/6
f 62/158/6 52/159/6 56/160/6 64/161/6
f 66/162/6 65/163/6 53/164/6 49/165/6
f 51/166/5 54/167/5 34/168/5 50/169/5
f 70/170/7 71/171/7 73/172/7 72/173/7
f 72/174/8 73/175/8 77/176/8 76/177/8
f 76/178/9 77/179/9 75/180/9 74/181/9
f 74/182/10 75/183/10 71/184/10 70/185/10
f 72/186/11 76/187/11 74/188/11 70/189/11
f 77/190/12 73/191/12 71/192/12 75/193/12
f 78/194/13 80/195/13 81/196/13 79/197/13
f 80/198/14 84/199/14 85/200/14 81/201/14
f 84/202/15 82/203/15 83/204/15 85/205/15
f 82/206/16 78/207/16 79/208/16 83/209/16
f 80/210/17 78/211/17 82/212/17 84/213/17
f 85/214/18 83/215/18 79/216/18 81/217/18
f 86/218/7 88/219/7 89/220/7 87/221/7
f 88/222/19 92/223/19 93/224/19 89/225/19
f 92/226/9 90/227/9 91/228/9 93/229/9
f 90/230/20 86/231/20 87/232/20 91/233/20
f 88/234/21 86/235/21 90/236/21 92/237/21
f 93/238/22 91/239/22 87/240/22 89/241/22
f 94/242/13 95/243/13 97/244/13 96/245/13
f 96/246/23 97/247/23 101/248/23 100/249/23
f 100/250/15 101/251/15 99/252/15 98/253/15
f 98/254/24 99/255/24 95/256/24 94/257/24
f 96/258/25 100/259/25 98/260/25 94/261/25
f 101/262/26 97/263/26 95/264/26 99/265/26
